<mxfile host="65bd71144e">
    <diagram id="1NxDS8UxQueUCi_Egc4O" name="Page-1">
        <mxGraphModel dx="1421" dy="529" grid="1" gridSize="10" guides="1" tooltips="1" connect="1" arrows="1" fold="1" page="1" pageScale="1" pageWidth="827" pageHeight="1169" background="#FFFFFF" math="0" shadow="0">
            <root>
                <mxCell id="0"/>
                <mxCell id="1" parent="0"/>
                <mxCell id="2" value="Convert Fahrenheit to CelsiusÂ " style="swimlane;startSize=50;fontSize=24;swimlaneFillColor=#FFFFFF;gradientColor=none;" vertex="1" parent="1">
                    <mxGeometry x="-10" y="40" width="520" height="440" as="geometry">
                        <mxRectangle x="10" y="10" width="210" height="23" as="alternateBounds"/>
                    </mxGeometry>
                </mxCell>
                <mxCell id="3" value="" style="shape=image;verticalLabelPosition=bottom;labelBackgroundColor=#ffffff;verticalAlign=top;aspect=fixed;imageAspect=0;image=data:image/png,iVBORw0KGgoAAAANSUhEUgAAAccAAABPCAIAAAARCpnkAAAAAXNSR0IArs4c6QAAIABJREFUeJztnXlgFEX695/q7rknySSTyX2HXIQj4QwolyC3AVFgIYAHKIq67yIiiOIqAsr+0BWQw11BuQQvDgUBBSQKAQKBADkghCsHyZCZTJLJnN1d9f4xMIZc6DoBj/r8lfTUVFd1V3/7qed5qgYRQoBCoVAovxlCCMaYudfNoFAolD8VVFUpFArFk1BVpVAoFE9CVZVCoVA8CVVVCoVC8SRUVSkUCsWTUFWlUCgUT0JVlUKhUDwJVVUKhULxJFRVKRQKxZNQVaVQKBRPQlWVQqFQPAlVVQqFQvEkVFUpFArFk1BVpVAoFE9CVZVCoVA8CVVVCoVC8SRUVSkUCsWTUFWlUCgUT0JVlUKhUDwJVVUKhULxJFRVKRQKxZNQVaVQKBRPQlWVQqFQPAlVVQqFQvEkVFUpFArFk3CerY7w9ULJZuH8Amy6DsSzdf9+QRKOjRooSXqf8UkAQPe6ORQK5V6CCPGc+GFeuLqez32KCH89I5gAGzhAkrKK8U68102hUCj3BkIIxtiT4kdEq1C8+q8oqQAAgI0nxMqv73UrKBTKPcajHgDM49pTf9EZMALirAerqU1PYrFYnE6nUqmUyWTugxhjp5MXBB4hRiaTcRzb7HcJEIEXeJ4nhHAcJ5VKEWp8q0RRtNlsgiAghBQKhVQqvfldQpxOpyAIrTdPJpNxnId9So3AGDscDlEUWZaVyWQM0/wLnBAiCILT6QQATiKRSiSNOltTUwMAXl5eLNv85fIshJBmJ4UIoaZ3wWaz2e12uVyuUCjcB13dIYRIpVJOwqG7+JjxvODknQRjjuNkMlnTBhNCLBaLa9jI5fJmhxYAiKLocDhcIxAAOE4ik0klEsnd6MPdpW2fASAAGFp0sCIA9PszbDEABmB+dw2z2Wzbt+84d+7sc889FxER4TpoMpmuXLlSWlp6vaJSpVLFREdHRkaGhYU2GtaCIFy9evVaybWKikqH3REQEBAWFhYbG+3l5e0u6XA4LlwoOnBgf2lpKcPKBw3s17t3L29vb9epT5/OLb5U3MrDbLFYhw4bEhUZ2ewT9dshhJhMpuLi4mvXSmpqary9vaOjo2JiYvz9/RuVrK+vLykpLS8vKysrxxgHBQdHRUZERER4eXm5yxw6lHn0aFZGRkanTp3aorUNwRgXFV2sralBqPGQIkBSU1Pcby8XP/740w8//DBu/LjUlBSEEM/zpaVlV69ddXUnLDQkMjIyNja2pTeKZ1teWam/cOFCWXmZpd4SFBQUF9cuOjpaqVQ2LFZcXPz99/uLiy96e/t06ZLas2eaTqdjmJ+HASGkurr64sXiwsLCixeLbDYbwzCJie2joyLj4uPDw8PuQl/uJm2pqgSQPJCLfAo476YfIgCCHWJlFq7e8zvSL6RmdA9xQV3Fqizxxl4A671u0E0wxufO5S3515KUzilKlQoACCHl5eXr1n2cmZlpNBoQI7FazDqdLjm5/bRpT3Xu3Mn9rNrtjjVrPjx4cL/+xg2r1SaKWCaV+Pn5RUZGvPrqq7GxsQAgCMLx49nLl6/48cdDVVVGxEgO/fD94088+cTjU1QqldVq3bdv7+dffCWRNG+GAEBtbU1CQlxUZGRbdJ8Qcvny5f/8d+3xY1nG6hpBJFIJo/HxiYgIf/31N+LiYt0ly8rLP/nkkyOHjxiNRnO9jWMZqZTT6fzv79NnUkZG5C3R9/b2/uKLryor9e+9955W69cWbXZTV1e3efPmzMzMZq28r7/e2VBVzWbzrt3f7t69e8iQIQBgtVq//37/J598XFFRUVdvxaLo46UOCAycMmXK6NGj2tTQEwShoKBg9eo1ubm51aZqTFilXBISEvzwww9PnDhRrVa7ihUXF8+aNevU6dPlZWVqtVdsbOyjj459+ulpAQEB7noKCwu3bN165PARg7HaYKhymashIWFqpSIhMX7s2HH9+/dr+M77o9PGqqoI5dpNQ4rQ5gtgJxF8sXFPG7bh14KUjHYolziJgEK88cPvR1UrK/ULFy4syM9ft26d1s8PAKqrTevWfbxixfKQkNAHHhjQLi7hxo3Ko0ePbdq8xWq1zZs3LyEhnmEYjPH2HdsXL15ktVpGjRrdoUMHTiIpLSnZsX37wYMHfH393njjDS8vtdFYvX3Hjm927eqVlnZ/nz5Go2HjhvX/WvJOr7SeXbt2IYRUV9eWl1d6eakIAVO1AWPcqIWiyDt5Zxt1v95c/+/3l23cuDEwIODhMWMCAgKNBsP+A/u3bt0qV6oWL3xLp9PBTf36dMWKD2RS6bDhw2Ji4jiWKSoq+vqbXadOn0EAM2bM8PX1BYBevdImTcpYu3btwYMHRo1Kl0pld2rC/47BYDx4MPNs3rm+9/fSarUNXQEYk0ZSq9frLxZd6JKaGh4ehhDKPpE9b968ikp9l9TUwUOGymWyayXXtm7Zcv58oVKpGDJkSNu5XK5eu/bee+998cUXPdPS/jZkgkKhKMjP/3bP3suXr6jUXmMeHq1QKOotlu07duzdu7dfv/6PTZliqqndt2/fypUfpKamDBkymOM4jPG5c+cWLX47K+uIIGC7wynwTgSEAJRfr5BK2CvXrl66dNnhcAwfPqyRCfzHpY09AIgFYABxYkUuttfcPn9EhDhJ7cXfkaF6EwaazNTuOd98883hw4fHjhvfuVMnhJAoinl5ed9++61UJnt6+vQxD4/29vbmeWHAgNz5r83fuXNnYmLirFkvyuXy8vLrS5cuq642Pv74E7NmvRgaFsYgVFdnbt++/ZtvvvHxx+seefSR3r16GY3G7OwTPt5eEyZMGD9+rM1m27lje2lpSdbRo127dgEAQIjjJBzHiSKZN++Vpg8AITg+Lr6Nun8698zGjRvUKvWsWS8++uijMpmM5/nOKZ2mPz39861bJmdM9Pf3J4RcuXo189AhQ7V57suznpk+TaPxBQCTqdrXV/Ov/1u6e/feBx4YmNazJ2KQQqEYNSr94MGDGzZs6N69e1RUVOsNcPK8hOOaNTYBoHWnR329OTc3Jzg08vnnn09ISGj4QkIIqVQq978YY4PBYDJVd+vWVafTWSyWZ6Y/W6m/kZgQv3DhWwkJCRzH1tTWBAcFL1q0cO7cuR06dIhsm8kBz/ObNm7cvuObwKDQ+fNf75KayjCooqJSq/Vfv2HDoUM/9OvbJywsrL6+fv/+H+RyeUZGxujRo0wmk7mubtOmjefyzvXv35/jOIvFsnrNmv3796vVXqJoTYiLGzU6PSY6ymq1fvTRx3n557Ra/4vFxVu2bElIiE9OTv5zuALaWFVvwV/6BuuXNxp7BAgQ+89K6xpsCIAAEACmQeqnyz/baOiiWwddX0G3HLhMg9rcJdHt9aDmKm/phpIGbYNb57qLd7+iomLLli21tTUz//H/XLNFQRBOnz516lTOoAcHP/DAgKCgINeD3alTpx49ehw+/JNeX8nzvFwuv3TpUnFxIcdxzz77bEJCgmvUqlSqoUOHHsrM3PbVl9euXuvZowcv8BaLBYBRq9UajUat9nKVtFjqG7ZEEASJRJaRkREcHHx7GwkQkMmbCWV4hHUff1xXW5uUmDhu7DhfP1/Xwd69eo8c+dCnn266UHSxR48ehJC8c/nFxcUPpw+fMjkjLCzM1RiVSjlpUkZhYeGZs2cvXSpOTUmRK+QAEB8f36VLl927d2UdPRocHNwwANgIs7l+27ZtPj4+I0eOaGgbZmVlnT9/ftCgQeHh4S11nBCoqam12aypKR3bt0+OiAhvVKDhF602W15+wY0qU3BwqEwmO5eXf+HC+cCgoCeefKJ7926uwJparX7yyScPHjyYk5Nz8mROWFhYWwTcysrKzpw5U1drmvfKnB7du6tUSgBQqVRTpkw+f74w52ROXl5+YGAgFsWa2lqEkEaj0Wg0CDEuz4DD7iAEA8DBgwc/2/qZt8bXarHc17v33LlzO3bqKJfJCCF9+vRZtGjxV9u2KVVe+777vl+/vvHx8a3chT8Qd0lVAWMQDaQV2UJqRjcc+Q5lFFLiEIilClctIvYal3ghRSoTMI2YT4LEl9V2AobFxmJcl834jyCWs8SWy2jHM96BxOHE5nxc/h5IlUzgTMYnDkk5XKfH+nXEngcASNqbCZ4A2IL1y4izwiXESJ3O+D0IgkPUv9RcywHJ4pjAZ0CqYdRy4EVsqSPVm7D52F0Lw+4/cPDSpUv39+kfFxfnOsKy7MiRI6OiY/z8/MJvyQcAsAzjesYwxi4zSi6XTZ8+HYskJCTYbQgghFRqVWREBMuyFRUVDocjQKfr0b3rf3NPbdv2ZWCg7vTpM3V1dQBwX+/7GraEEBAJkclkSqUC7iLPPz9j9Kh0jUbjo/FxH+QknEQqBQDe6XSF2P20fiNGjkxISNDp/N3XhGEYrVYbEhL840+H9TcMvMDLQQ4ACoUiLa3nihXLt331Vf9+/UJCQpo9Nc/zu3fvXrDgzStXrmzctOlv48ezLIsxzsk5NX/+6z/8cHD27Dlz587x9dU0+3W73Xbu3DkASE5uHxIS3Ppbx26zZR057Kvx6t69m1QqLSgoAAB/rf/oUaPd0okQiogIb5+cnJWVtXnL5yNGDG9WVXmev379eivZ6ISAl7eX1s+v2SZdu1ZSUlIKQHr07Om+1wzDBAUFhYeH7927Jy/vXN++fdRq9eBBA0+dPL5ixSqZTJZ75tw33+6TyRVxce1c+rh+/UYBM7zDGRsT9eKLM3v27OFubVxc3PPPP3/q1GmLtX782EciIiLsdgdV1V8DIa0stULSKC5hCRfZH8n9gQiAGACMTenO009gYxYgYP3aSbtPw5ZRSKJCMg0AEGslf95P2mU6rr9ObJWstjMgFhBLRLPzZDmjGcbFjkGsHIABEISy7vyZZ4g1H3mlyXo8QyxlDusuYqhwWbtsSH9J+yeBt9oPvkQct7cMA6PrL+30AaONBwxARGA4QAjXDOILPxQr1gGubdvrBmA0GE+fOl1bWzt+3KPuEAHHce3atWvXrp27mCv5qajo4unTp6VSqY+PjyuU0a1bt6SkJJ4XNA30CABqa2uPHst2OnlXSJdl2REjRmZnn9y5c+e2bdsAQKFQvDT75c6dG4fIWQaJotg0y4pl2TYyVAGgW9eu3bp2df9LCLHb7adPndq774BMJktIiJfL5QAwaOADvXqlEUK8G4Q+MMalZWWF58/7+2ujIiPczy3HcUlJSTKZ/HTu2WPHjo8Z83Czp+Y4LjU1pXvPXhV644wZMwkmY8Y8XHTx4tvvvJ2ZeahPn74DBvRv5R3jdDqzs7MZllUqFfkFBZcuXRJ4XiqVRkRExMfHq9Vq90UjhFQZDFUGQ3h4uE6nYxim2mgEAJZlmtavkMtFDEXn81rSzYqKyjGPPHoq52QrV3XWrFnvvPNOs55Zk6naZDJ16dpde2tm4EKpVLjeHxUVlTabTavVjhqdvmrVyiNZWQeHfyeRyuUKecbECX379pVIJFeuXCkrL/dSq0XMh4WFxcfHN3wBMAzToUPytm1fIoS0Wq2Pj8/dyXK7C9wlVUVKX8Y75bZZMyHYcgGIHYiUjXyJi08H0S5W/YjrziOZH6vtzfi2k/b60rEvjfAlrrk3ow4lfD2uOQcMwTeOAsiBEEYVRqTe2Hga28sYTTdGHSHt+hEiCJsvi+Z8RhXL+HRkgzqJld3Eq8UAzO1uArj1NyJEbGp7ImmgpMMSxi+JWPSifh+xVyJ1NOvfi9EksGEP4aptxNnmqmowGs+ezRVEITo6qtkHgBBiMBguXbp0+nTu9h07j2WfHDPmkUmTJrvkg+M4Hx+fRl+pq6vbt++7C+cLNBpNcHAQAMhkskGDBjqcznXr1pWVlrIs+1B6+j/+399dmVVuOI7Fovjdd995eTeI2BLi6+uXktI5ICCgJWG12+08z7fe04YS0xKiKFZUVBQXFx87dmzXrj3GqvLHnniiQ4eOri9KJBJNk84ajcYvv/jyp58Op/VMi4yMaBhwDwwMeig9/csvPj9zJjc9/aFmLy9CKCEh4Z/zX6vSVx7Lzpk+ffrVa1dzT+fu3rU7La3XzJkz+/Xr24qFxfP8d9/t0+mCvvpq+84dOy8UXQAAs7k+MSFx0qSMSZN+9qWIopiXl19QUDB+/HiNrwYAgoKCAMDpdFZVGRqGyB0Oh8FgkCtUhBBRFJs9r0wmbd8+SWg1fhgcHNzsfEsURavNxvN8RES4SqW+vVqZ69VeVVVltVq1Wm2X1NQdO7bPnDnT4XAwDDNw4MDp059xdaq8/HphYZFG4y3YHBqNRqvVNjqRUqmMj28rX/w95C6pqrTLk0CmNDiAAIuOA31wfSEgTpI4BhFGKNvmPPMS2EyAgIt+RtJ5AaMI5Dos5HPcX8RiyVf82VdAJoK9io1dBwBEdAjXdgl5C7D1Ihf/T2nnF5HUWzTmOY89hWuOMdo+0q5LWf8UxncULvm25dTZ5sDABE1A0kBi0ztz5wtX1yIGgACX9JK08yLWN5yXy6Ctgt63moCx0Wior69PTu7g6+vbrOg4HI7PPv/8pVmzHA4HYiTx8e0mTJgQGRnRkuPfZrPt3r175coPDAbjnDkvd+zY0XVcpVKNG/vo8GFDjUajUqnUarVNa3BNfl+cNQs3eJgFQejRo8eiRYu0Wm1LIenvv9+fn5/XNHPAhcvgmjNnzh0j2haL5f1ly95duhQAvH38JFLZ88895wrrN0t9ff2OHTv+/f6/gwKDhg4d4kojc6NSKRMTEgCg/Pp1o9EYGBjYUj1JSYmrVq2a/8abe3Z9u3jx21jEiUntZ7/88pDBD7rM5JaoqKgURRGQeP16RUrnjrNfmg0IHTt69EjW0Vdfe62sonLRgjfcvsi8s2crKyqS27d32dodO3ZACJlMNVu2bP3HP/6uVCoRQk7eeeLEyWPHjvtqvDHGNqvNPYNpiL+//3vvviuKuJX3lFKpZJlmzENRFG1WqyAKXmq1RHpb8pZrIQAAWK1WQRABgGGYPn36ZGVl6fV6iUTi7+/vvokWq9VqqdH4eRMCMpnizzG7/yXcJVUltloQ62+zEAkmRAQApPBG8mBiqRDLj4HTBBIAAkL5l2z4FDbEn/GOQ1LFTTEU6sSyz4hQAQIAvplQQOx6rP+W8BeRBMBeBkI9SL2wIY/UH0NSAD6PWE6CNhVxml8dYEJAas7whe8D2PGNtYyPGim6I07HqDsAEYCRAmJuRq7aDKfTWam/UV9viYqKavbhAQBCICgoeNLkyU6Ho6joYvHlK+s3bHQ4nCNGNJOqUm+x/HDw0PvLVpSWlPXr12fKlMkNY9AAoFarWzqRC4SQXK4gDfTRbrexLNMw67spmzdv+uqrr1pfnTV79uxWPnXBMEznTp0ef/xxu91+9lxBpb5y6dKlzz7zbPfu3Zomb1qt1m927Vq1arVKqRwxcvj48eM1mtu8n1KpzKWkNSaTub6+FVUFgPj4uHGPjvnys8+CQ0IdDkd4WGjXLqmtSyoAmM3m3r17l5SUTp06LT19pKsB6ekPrVnzn61bt65e/eGIoYMHDx4MAPobN86fv5Cc3CEm5maGf2xs7ODBQ45kHd2yZUtwaHC3Ll0kEklpaem6dR9fuXIpNCwSoMXhx7KsK9vsfwBjLAgiIQQ1uakIIcQwACAIgise5UIqlYaHNw7EiYIAgBAgAISak+8/K3dJVYVLe7Dp69szljBxVAAGJqA/ACFOC7EYbg4RBOA0YEsFC4BkXkjVyaWq2HqDCOabBdw4bxBbsetPgusJERARieP6zU9JDWDXKtJfH7NHgOt+QEItG9qXS1yM1F6Mqg/IAhmpNzByl0/iV9f5KxFFsbamxmazBQTofHx8mrVV5XLZ0CFDhg4ZLAjC6dO57767dOeOHVevXPX39xswYIC7mGtt0o4dO9d8+OGFokv9+veb98pcd/jrF4IxBgTpD42UyhosByIQHR2t0wU0XTvkZuTIkUntk1qpGQH6JW41hUIxZsyY0aNH2+32H37IXLdu7aaNG81m88oPPggNvS0t2mQyLViw4Pv9+0tLSiZOnDh9+vTo6KhGF5DjWB8f1+Ixu9PR2rwDY5KZmfnxuo8RQjqdrrq6uqDw/Pbt2zMyMvz8WltEkJSUtGjR4kp9ZVrPnu5ZvLe397RpT+7/fl9dXd2a/6xzqeqVK5ezjmYNGzbM3U6FQrF48eL5r88/euzkwrcWxse14ziuqqpKrfYaMWLkocxMtSqkJVl3OBxFRRcdDkfLyQkkMDAgrEGo0w3DMBzHMQhhLDby2xJCXNMUuUJxx/slkUhcySEAhOdtIhYbmcYuDwbDMH+OhCo3d0lVcU051u9qrEIIAADJogAAECENk6EQAHECIGBkwN60IAhfD2KToY9tINb8nFYFAEAAW3/+++YHjeb+DUZSS3MkAsjrPknyPDb4PiRRE3s1sduIpRrzNYzXHdIbPQXGuL6+3uFwaDSalkxIhJBafdPe7Nu3j81mO5tXWFBYcPbs2T59+rinY0ajccuWLcuWr7hy5eqoUemvzpvXuXOnXxsfEARRIpXOnDkzMKiBWUeA41iVSsWyLT4bEydOxKT56f/NXvwyVWVZ1mVce3l5jRkzWiLl9u3be/inn86cPetWVUJIWXn5Bx+sWrnqQ46F6dOnz5gxIyYmpmn9CN08qZNvbZcDQRBOnsx58803f/rpp7RevaY/PT0n59TmTz99991lCLGTJk1sZAI3xNdX4+ur6dixQ6Pztk9K8vb2VqrU3323F26KYJHNZktqn9TQl92xY4eFCxd+882ui0VFer0eMWxaWtqjjzyam3vm6693orDQlnwmtbW1y5cvz8/Pb3F0E5gw4W/PzniWYxvXwLKcQqFgWdZsNjtv94bzvOBwOADAS62+48ouLy8vrX8AIZhhkM1qs9RbGrnpLRZrTk6OVCqJiory8fFRKBRtF/C8m9ytHICb84Cmx4HU7AV4G4BDiGsojCDxAyAgWkEoBYgDl/A24xjFt+em3qq39cY0fGcirnlhJcAGp7NBfYFB/JU9RL8X158gNp4LH8N0+AcAA9DmkxqGYWQyuWuNSiOrwW53VFcb1Wp1w5HKsmy7uHYdkpP2lV4zmWrsdrtLi2tqaj76aO0HH6ww1dSNHTvu5dkvdurU6X9YlkMIETHRaDS6Jqvv79gR5jeY9jabrdpk8rq9sxzHde3SFQCcvHj+/IVhQ4e6nsmLFy+uXvPhxo0bRYF/Ze68J5+ceseV5hzLtvRKEEQhJyfnrbcWHD2a1b1Hj9fnz7///vu6detqMlVv2rR5yZIlLMtMnjzZ/WJrtvECL9wW3wNgGAYhBAQs5loAsFqtV69ejY2N6dixY0O1kkgknTt1ioqMrK6uNplMEqk0MCDA399/17ffsizbLj6hJRlyOJzn8vKOHzvaSq979+7VbKCBZRmVSiWTya6VlFoslturtZvNZgDQ6fwbbv7SLJGREbExsZevXGUYpspgqKioaHj7CCFlZaWrVq8uyM9r1y5u7LhxI4YPaxpZ/SNyt1S1JRjAhksAgJR+bGASNt1M5kd+A1jfSADAtjpszme84gA84sEUAIvAejHqjrjyIBBA8jDGOwgxTJPRhZFcxWhCESsVzXoh5ykCdYCtwChBzgGrBKEOQAq3G8keh2VZPz8/lUpZZzZbLFb3ZPPGjaply1ds3bplxrPPPP300w0DxFgUHQ6eAJLJpC5DzGq1zZnzyuefb5XJ5HPnvDxx4sSoqMj/OYvl7u9FbrPZJ09+rPjy1WefeeqpaVMb6qPLbmIQaHxuWovFxZfmzZu3b9/3Fot55cqVGRkZXl5erVhArneVQqFscdEqAbvDUVJS0r17j4ULF/bu3UsqlSYkxM+Z87LFUr9t21dms7kVA2vs2LFOXig6f77wfGHD44IgYIydTkda2v2EkLq6uvLy8sDAoKjIKI67qap2hyPnZI7dbuvSpUtMTAzG2OXWrLhecSL7pFQqHT50aEv3MSgo8NPNm+x2e4stA9BqtS19XavV+vn5nTlz1mgwEvLzslqLxWI0GgFAp9Pd0accEBDYrXu33NzTWn9deVnljz/+FBIS4h6rdrt937593323T65Qlmdm3nfffY12mfnjcq9VFYCIvHj9RzakDxv9GBZYbPwUSZMlcf9gvGOAEFyRCaLTMxEhBMSRj22VjDKSi55OeCkRbGzIQDZ4ADBNbycC0QIiDwCMwouNfU68vggpRnARU9jIYYAYYKQIeZM2VlWO47T+fkql0lBlNJvr3ONbpVLKZZLLl4ozM39MT093j1RRFAsLC7OPH1OplH5+fi5rYtXq1evWfeTt7f3GG29MnDjRy+vOCUy/K+Ryuam25mzuqQ3rP3n0kTHuBB2McXZ2NgDI5bJu3boihKqrTStWrNr33aGIqOhX580ZN3Zs6/a4IAiuxQ5qtUqhaF4jOI5L69lz5cqVPj4+ycnJrgpZlm3fPmnJkndeeOGFjh07NIr4NSQqKnbVqhV2u72o6GJ8/M9e7MOHswwGY3197TPPPCWKYlHRxWslpT179vT29nbfnHpz/YMPDgoICHxnyZK/jR93a30Hyc7OPnbsCMdxaWlpLU3DJRJJTExMK31vnbi4drGxsSdOnMjMzExL6+kKe4qiWFZWfu1aSZcuXZOSku74YmZZZvKkiR+uWc0wzI2qqtf+uaCmrm7Mw6PVKpUoinv27Hn11df8/HU2qzUlJaVv39YS1P5YtLWq/pKnl+eL1iHvSMYrWtZ5NrZPRRIFkmqAEOHaLqH4tZYnjggQAtLQs3Az3nh7MeJeoErM+8Xrp5jYUEabKOvxOmABWBVgKxDhZ6G5tSSH8Eg05LIhw5EiQNrpRRybgSRKJPMlopWIFiT1Q1woANOc/8FjcBznr/VXqdRnzpytrNQnJia62imXy9snd4iKjj2clbVt+44nHn/cR+Ms7E1PAAAIt0lEQVSDRTE/P3/9+g1Wm+Xh0Q8/8MBAQkhhYeGixf/y1wUp1V7x8fElJSUNMxwxxn5+fr/zrdgQgulPPfVTZualy1c2bNw0ZfIktVotiuJPh4+sXbsWITQiPT08PIzn+dO5udknjlotpvvvGxsTHV1QUNAoRz4gICAgQOeWA7O5/syZcwAQFBTUSnqWTCbr27dvk1ahRgsxmmX8+LGffrrxhqHm3XffmzdvblBQEMbk8uXLH6396HpFRWpK9xEjhmOMS0tLysvLuqQ+49cg697fX8swbIXesGbN6l690oICAwkh2SdOrPnwQ6eTf+WVeTExbeXf9/f3j0tMVnn5vbX43ZTU1GFDhwCg0tKSlStXHcr88bEpk5OTk3+JaZmSkvJ/S//v9fmve/v4iiL+5/zXP/vss+SkpMtXrh09ejg0LIJ38jKZYtCDg+Pj43/Pg/BX0ZaqioAI9dhchHgzCFUtCiwSseFT59FSLuEF1jcesXIQbNh6VSg5IBTPdUkq4WtxbT42XyKi7efKbSXYlIctlwm2u44AX01qL2CHidgrbx7BQKw3cG0esV4mIAACPv9lEMrY0AcQKwGCcO1V0ZjNBfYlNxf7i2Avx7UF4NADg8WSZU5WlLSbhiRyxMkJf0O8cUQszWKDezL+yUjlCwYW4A57Of9GtFq/yKjo48eP62/o3a5VlmUfGNB/4oTxH3300fLly0+ePBGfkGAymk6ePHn2bG7//v2fnv50ZGSExWLZtftbh61OodCKvOO1+a/xztuCDxarNSMj44UXnve+4z5shGBREATEtLABc5syfPiwF/7+908+Xvevfy3JOXkyLCzMYDAcOJhZU2OIjo6Z+fe/+/r6Go3V33z9dX5+gS4g6NixY2fPnBEE0T2TIAQIkMcem/L4Y4+5vXsGg+H7/QdVap+QkNBW7M3fQocOyYsXL37llXnrN2y6VnKtQ3J7p9N5/PiJi8UXdf7aJUsW+fv7G43Gs2fzvL28w8PDGxnXu3btysiYWFhQ+NxzLyQmJtSYTMeOZ1dUlHdK6TZ+/Hi1uq12z+M47tmnp16+eH737t0vznxx9+6BPj4+OSdzjh490iutxyOPjGk9C82NRCKZOGGCua5u1ao1vCBqfH2vXL6ad65AqVQGBYY47HYE+MHBg6ZMzmi09u8PjSd/t4o4DLavdQC3b1wiuEJPdzJbCYAISArIK4YIJmI23bbBCgYQARAA26AeEUC8FTRy73viOh3bIJLkLsbdKoMBWEBe3uBgidX08y4trnpc5d01YAAA5KNGbDtSk0v4W+uzMAB3e26VCJKEuZKUt3/LNWwKz/Nr165dsGDBsOEj3//3uw1dqAaDYc+efVu3bikrK7PZrBKJRKVSxccnzJr1Yvv27WUymcFgWPz2kuPHj+IWVuAAwPjxf5s2bWrrOarV1dX//e9/d+zY4fp327ZtTXZXaXP0ev1nn3++efNmm9VqtztkMqlSqRw+fMSECRPi4+Ncu82uXr3m4MEDrVTy2GOPuTytAIAxPnDgwODBgwcNenDZsmXtW038+i3U1dUdPnz4rbfecjgcVqvVlcaQmtpl2rSpqaldOI69dPny1CefCgzU/fvf7zXajsBud2RmZn7yyScFBfk2m53jOJVKOWzY8IyMiQkJCW3UYDfXr1//5JMNe/bsNplMDodDpVK1a9du6tRp/fv3u2OoqiF1dXWZmT9++eWX+fl5FquVd/Ku2xcQEPDEE0/26tUrNLT5TRj+cLh+t6qNVfVXV9Fwvt7GuPr9C0/k3karFdpGVQEgO/vE1KlPXr5aduJ4VqOH32q1VlVV6fX6ikq9l1odGhrq6+ur0+lc/gyHw2EwGAWhxaWihBC5XK7T6Vr3kfE8bzKZbLabE4XQ0BYTetoOQojNZquoqNTrK43Gal9fTWBgoE6nc2c12e12o7Ga5/lWnMYqlUqj8XX9CI3dbl+6dOnSpUtnPPfcK3PntumuyRjj0tLSapOpsqJSJpOFhYVqNBo/Pz/XZTQajXv37gsIDBjQv3/TC8vzvF6vLy+/fqPqhlKhDAkJCQoK0miaT172ODU1NdXV1WVlZUZjdVhYaEhIiE6n+x/CSk6n02QyVVVVXa+oNJvNvhpNSEiwj4+PVqv90wSp4Heqqn9o2kxV7Xb7vHnzPvzww2lPPbvs/aVNC2CMXdnUf5r9KVoBYyxikUG/tbPFxcUzZjxfW1e3Yvn7Xbt2vQuXzpX07k6SbXjc9aNPrbyrMMauHICbKVl3F1EUMcEsw/5G1ychRBQxIfjPOlY9/xurlDZCLpdPnjwlMan9+vUfX7tW0rQAwzASieRPOUybwjCMhPutneV5/siRrMLCwiFDhiYmJt6dS+fSzWYXI0gkktbNf9d6pzbdGKwVWJaVcJLfHk1CCHEc+6cfq1RV/xgkJSVOnTrVajHv3r279SREyi9Br9cvWfKOUimfOGH8n+kXkyi/B+59virllyCXy8ePG3uxqGjDpq0DBz5wFyIVf2IIIevXb5TJFbNnvxQX1+6Plb1L+f3jUb+q02D/Vkf4v6pflYAkca6ko+f9qjerJ6SysrKs/Hpcu9hWFp5Tfgnnz1/geeef5ic9KL8TPB+tAsHqOPWiePk/wN39ZY33GgKMMlGSsoQNTb/XTaFQKPcGl6p61APAKSRJs8FZjQ2ZRPwLCStCAMpALvYfbNCQe90WCoVyj/GorQoAgIm9SjQUE7sDyF/FEYBYQD461jcOGDqdpFD+urSBB4BCoVD+whBCCGnxt6QpFAqF8r9AM6soFArFM7iy9KitSqFQKJ6E+lUpFArFk1BblUKhUDwJVVUKhULxJFRVKRQKxZNQVaVQKBRPQlWVQqFQPAlVVQqFQvEkVFUpFArFk1BVpVAoFE9CVZVCoVA8CVVVCoVC8SRUVSkUCsWTUFWlUCgUT0JVlUKhUDwJVVUKhULxJFRVKRQKxZNQVaVQKBRP8v8B433Jadqr69MAAAAASUVORK5CYII=;" vertex="1" parent="2">
                    <mxGeometry x="10" y="60.00000000000003" width="345" height="59.9" as="geometry"/>
                </mxCell>
                <mxCell id="5" value="Fahrenheit" style="text;html=1;strokeColor=none;fillColor=none;align=center;verticalAlign=middle;whiteSpace=wrap;rounded=0;fontSize=24;" vertex="1" parent="2">
                    <mxGeometry x="30" y="110" width="60" height="30" as="geometry"/>
                </mxCell>
                <mxCell id="6" value="&lt;font style=&quot;font-size: 14px&quot; color=&quot;#757575&quot;&gt;Enter&amp;nbsp;&lt;span style=&quot;font-family: &amp;#34;arial&amp;#34; , sans-serif ; text-align: left ; background-color: rgb(255 , 255 , 255)&quot;&gt;Â°F&lt;/span&gt;&lt;/font&gt;" style="shape=partialRectangle;whiteSpace=wrap;html=1;top=0;left=0;fillColor=none;fontSize=24;" vertex="1" parent="2">
                    <mxGeometry x="10" y="150" width="120" height="20" as="geometry"/>
                </mxCell>
                <mxCell id="12" value="&lt;font color=&quot;#000000&quot;&gt;A&lt;/font&gt;" style="text;html=1;align=center;verticalAlign=middle;whiteSpace=wrap;rounded=0;fontSize=14;fillColor=#FFFFFF;" vertex="1" parent="2">
                    <mxGeometry x="120" y="80" width="20" height="20" as="geometry"/>
                </mxCell>
                <mxCell id="13" value="Calculate" style="rounded=1;whiteSpace=wrap;html=1;fontSize=14;fontColor=#000000;fillColor=#FFFFFF;gradientColor=none;shadow=1;glass=0;" vertex="1" parent="2">
                    <mxGeometry x="10" y="190" width="120" height="30" as="geometry"/>
                </mxCell>
            </root>
        </mxGraphModel>
    </diagram>
</mxfile>